<mxfile host="app.diagrams.net" modified="2024-03-04T18:49:31.147Z" agent="Mozilla/5.0 (Windows NT 10.0; Win64; x64) AppleWebKit/537.36 (KHTML, like Gecko) Chrome/122.0.0.0 Safari/537.36" version="24.0.1" etag="hwc2sD7QZHKI3Get6T9a" type="github">
  <diagram name="Page-1" id="xohVsvtXSEpIb4WMQ1DA">
    <mxGraphModel>
      <root>
        <mxCell id="0" />
        <mxCell id="1" parent="0" />
      </root>
    </mxGraphModel>
  </diagram>
</mxfile>
